<svg xmlns="http://www.w3.org/2000/svg" viewBox="0 0 512 512">
  <defs>
    <linearGradient id="g" x1="0%" y1="0%" x2="100%" y2="100%">
      <stop offset="0%" style="stop-color:#7CAE7A;stop-opacity:1" />
      <stop offset="100%" style="stop-color:#5C8A5A;stop-opacity:1" />
    </linearGradient>
  </defs>
  <!-- Background circle -->
  <circle cx="256" cy="256" r="240" fill="url(#g)"/>
  <!-- Chat bubble -->
  <path d="M 160 170 Q 160 140, 190 140 L 322 140 Q 352 140, 352 170 L 352 280 Q 352 310, 322 310 L 230 310 L 190 350 L 200 310 L 190 310 Q 160 310, 160 280 Z" fill="white" opacity="0.95"/>
  <!-- Sage leaf inside bubble -->
  <path d="M 256 180 C 230 210, 220 260, 256 300 C 292 260, 282 210, 256 180 Z" fill="#7CAE7A" opacity="0.85"/>
  <!-- Leaf vein -->
  <line x1="256" y1="190" x2="256" y2="290" stroke="white" stroke-width="2.5" stroke-linecap="round" opacity="0.6"/>
  <line x1="256" y1="220" x2="240" y2="240" stroke="white" stroke-width="1.8" stroke-linecap="round" opacity="0.5"/>
  <line x1="256" y1="240" x2="272" y2="258" stroke="white" stroke-width="1.8" stroke-linecap="round" opacity="0.5"/>
  <line x1="256" y1="255" x2="243" y2="272" stroke="white" stroke-width="1.8" stroke-linecap="round" opacity="0.5"/>
</svg>
